<svg version="1.1" xmlns="http://www.w3.org/2000/svg" viewBox="0 0 1476.8091445489395 540.0009970504975" width="1476.8091445489395" height="540.0009970504975" filter="invert(93%) hue-rotate(180deg)">
  <!-- svg-source:excalidraw -->
  
  <defs>
    <style class="style-fonts">
      @font-face {
        font-family: "Virgil";
        src: url("https://excalidraw.com/Virgil.woff2");
      }
      @font-face {
        font-family: "Cascadia";
        src: url("https://excalidraw.com/Cascadia.woff2");
      }
    </style>
    
  </defs>
  <rect x="0" y="0" width="1476.8091445489395" height="540.0009970504975" fill="#ffffff"/><g stroke-linecap="round" transform="translate(10 252.52390951782974) rotate(0 111.19998168945312 91.86639823239597)"><path d="M0 0 C73.73 0, 147.46 0, 222.4 0 M0 0 C78.41 0, 156.82 0, 222.4 0 M222.4 0 C222.4 45.21, 222.4 90.41, 222.4 183.73 M222.4 0 C222.4 37.29, 222.4 74.58, 222.4 183.73 M222.4 183.73 C164.56 183.73, 106.73 183.73, 0 183.73 M222.4 183.73 C169.64 183.73, 116.88 183.73, 0 183.73 M0 183.73 C0 113.44, 0 43.15, 0 0 M0 183.73 C0 125.13, 0 66.53, 0 0" stroke="#1e1e1e" stroke-width="4" fill="none"/></g><g transform="translate(91.12185668945312 328.2903077502257) rotate(0 30.078125 16.099999999999998)"><text x="30.078125" y="0" font-family="Helvetica, Segoe UI Emoji" font-size="28px" fill="#1e1e1e" text-anchor="middle" style="white-space: pre;" direction="ltr" dominant-baseline="text-before-edge">TIVA</text></g><g stroke-linecap="round" transform="translate(17.78316074817519 28.02983942338585) rotate(0 111.19998168945312 42.80000305175781)"><path d="M0 0 C75.19 0, 150.37 0, 222.4 0 M0 0 C65.84 0, 131.67 0, 222.4 0 M222.4 0 C222.4 29.7, 222.4 59.4, 222.4 85.6 M222.4 0 C222.4 27.31, 222.4 54.62, 222.4 85.6 M222.4 85.6 C167.94 85.6, 113.48 85.6, 0 85.6 M222.4 85.6 C159.08 85.6, 95.76 85.6, 0 85.6 M0 85.6 C0 62.88, 0 40.17, 0 0 M0 85.6 C0 53.16, 0 20.72, 0 0" stroke="#1e1e1e" stroke-width="4" fill="none"/></g><g transform="translate(66.72825962512832 54.72984247514364) rotate(0 62.2548828125 16.099999999999994)"><text x="62.2548828125" y="0" font-family="Helvetica, Segoe UI Emoji" font-size="28px" fill="#1e1e1e" text-anchor="middle" style="white-space: pre;" direction="ltr" dominant-baseline="text-before-edge">MPU6050</text></g><g stroke-linecap="round" transform="translate(661.3896845737266 303.5836848321982) rotate(0 111.19998168945312 42.80000305175781)"><path d="M0 0 C77.07 0, 154.15 0, 222.4 0 M0 0 C52.93 0, 105.87 0, 222.4 0 M222.4 0 C222.4 25.77, 222.4 51.55, 222.4 85.6 M222.4 0 C222.4 33.63, 222.4 67.26, 222.4 85.6 M222.4 85.6 C160.53 85.6, 98.66 85.6, 0 85.6 M222.4 85.6 C174.07 85.6, 125.74 85.6, 0 85.6 M0 85.6 C0 61.74, 0 37.89, 0 0 M0 85.6 C0 67.25, 0 48.9, 0 0" stroke="#1e1e1e" stroke-width="4" fill="none"/></g><g transform="translate(724.3416193881798 330.28368788395596) rotate(0 48.248046875 16.099999999999998)"><text x="48.248046875" y="0" font-family="Helvetica, Segoe UI Emoji" font-size="28px" fill="#1e1e1e" text-anchor="middle" style="white-space: pre;" direction="ltr" dominant-baseline="text-before-edge">ESP-32</text></g><g stroke-linecap="round" transform="translate(1234.0857119346056 155.42465106878217) rotate(0 111.19998168945312 42.80000305175781)"><path d="M0 0 C73.2 0, 146.39 0, 222.4 0 M0 0 C62.52 0, 125.05 0, 222.4 0 M222.4 0 C222.4 33.66, 222.4 67.33, 222.4 85.6 M222.4 0 C222.4 21.21, 222.4 42.41, 222.4 85.6 M222.4 85.6 C144.75 85.6, 67.09 85.6, 0 85.6 M222.4 85.6 C167.43 85.6, 112.47 85.6, 0 85.6 M0 85.6 C0 55.04, 0 24.48, 0 0 M0 85.6 C0 58.74, 0 31.88, 0 0" stroke="#1e1e1e" stroke-width="4" fill="none"/></g><g transform="translate(1300.1616701865587 182.12465412054) rotate(0 45.1240234375 16.099999999999994)"><text x="45.1240234375" y="0" font-family="Helvetica, Segoe UI Emoji" font-size="28px" fill="#1e1e1e" text-anchor="middle" style="white-space: pre;" direction="ltr" dominant-baseline="text-before-edge">MotorA</text></g><g stroke-linecap="round" transform="translate(286.49518409975695 303.3305840484629) rotate(0 111.19998168945312 42.80000305175781)"><path d="M0 0 C69.24 0, 138.48 0, 222.4 0 M0 0 C85.34 0, 170.69 0, 222.4 0 M222.4 0 C222.4 22.01, 222.4 44.02, 222.4 85.6 M222.4 0 C222.4 24.8, 222.4 49.6, 222.4 85.6 M222.4 85.6 C172.95 85.6, 123.51 85.6, 0 85.6 M222.4 85.6 C142.54 85.6, 62.68 85.6, 0 85.6 M0 85.6 C0 60.53, 0 35.47, 0 0 M0 85.6 C0 56.38, 0 27.17, 0 0" stroke="#1e1e1e" stroke-width="4" fill="none"/></g><g transform="translate(349.4471189142101 330.0305871002207) rotate(0 48.248046875 16.099999999999998)"><text x="48.248046875" y="0" font-family="Helvetica, Segoe UI Emoji" font-size="28px" fill="#1e1e1e" text-anchor="middle" style="white-space: pre;" direction="ltr" dominant-baseline="text-before-edge">ESP-01</text></g><g stroke-linecap="round" transform="translate(939.8212696792751 302.8440584227404) rotate(0 111.19998168945312 42.80000305175781)"><path d="M0 0 C72.62 0, 145.23 0, 222.4 0 M0 0 C48.21 0, 96.43 0, 222.4 0 M222.4 0 C222.4 31.72, 222.4 63.44, 222.4 85.6 M222.4 0 C222.4 26.56, 222.4 53.11, 222.4 85.6 M222.4 85.6 C164.8 85.6, 107.19 85.6, 0 85.6 M222.4 85.6 C154.47 85.6, 86.54 85.6, 0 85.6 M0 85.6 C0 56.61, 0 27.63, 0 0 M0 85.6 C0 58.56, 0 31.52, 0 0" stroke="#1e1e1e" stroke-width="4" fill="none"/></g><g transform="translate(990.3181263687283 329.54406147449816) rotate(0 60.703125 16.099999999999998)"><text x="60.703125" y="0" font-family="Helvetica, Segoe UI Emoji" font-size="28px" fill="#1e1e1e" text-anchor="middle" style="white-space: pre;" direction="ltr" dominant-baseline="text-before-edge">L298 mini</text></g><g stroke-linecap="round" transform="translate(1244.4091811700332 444.40099094698184) rotate(0 111.19998168945312 42.80000305175781)"><path d="M0 0 C54.16 0, 108.33 0, 222.4 0 M0 0 C85.41 0, 170.82 0, 222.4 0 M222.4 0 C222.4 23.14, 222.4 46.28, 222.4 85.6 M222.4 0 C222.4 19.21, 222.4 38.41, 222.4 85.6 M222.4 85.6 C166.3 85.6, 110.21 85.6, 0 85.6 M222.4 85.6 C156.32 85.6, 90.23 85.6, 0 85.6 M0 85.6 C0 52.16, 0 18.72, 0 0 M0 85.6 C0 52.54, 0 19.49, 0 0" stroke="#1e1e1e" stroke-width="4" fill="none"/></g><g transform="translate(1310.4851394219863 471.1009939987397) rotate(0 45.1240234375 16.099999999999994)"><text x="45.1240234375" y="0" font-family="Helvetica, Segoe UI Emoji" font-size="28px" fill="#1e1e1e" text-anchor="middle" style="white-space: pre;" direction="ltr" dominant-baseline="text-before-edge">MotorB</text></g><g stroke-linecap="round" transform="translate(830.2889965126982 10) rotate(0 111.19998168945312 42.80000305175781)"><path d="M0 0 C63.89 0, 127.77 0, 222.4 0 M0 0 C60.87 0, 121.73 0, 222.4 0 M222.4 0 C222.4 27.73, 222.4 55.46, 222.4 85.6 M222.4 0 C222.4 29.11, 222.4 58.23, 222.4 85.6 M222.4 85.6 C134.62 85.6, 46.84 85.6, 0 85.6 M222.4 85.6 C156.65 85.6, 90.89 85.6, 0 85.6 M0 85.6 C0 58.38, 0 31.15, 0 0 M0 85.6 C0 52.12, 0 18.63, 0 0" stroke="#1e1e1e" stroke-width="4" fill="none"/></g><g transform="translate(862.1100719521513 36.70000305175779) rotate(0 79.37890625 16.099999999999994)"><text x="79.37890625" y="0" font-family="Helvetica, Segoe UI Emoji" font-size="28px" fill="#1e1e1e" text-anchor="middle" style="white-space: pre;" direction="ltr" dominant-baseline="text-before-edge">Lithium bank</text></g><g stroke-linecap="round"><g transform="translate(122.4104442470741 119.53019667860838) rotate(0 -1.308441530601101 58.22543598195269)"><path d="M0 0 C-0.67 29.84, -1.34 59.68, -2.62 116.45 M0 0 C-0.59 26.35, -1.18 52.7, -2.62 116.45" stroke="#1e1e1e" stroke-width="4" fill="none"/></g><g transform="translate(122.4104442470741 119.53019667860838) rotate(0 -1.308441530601101 58.22543598195269)"><path d="M-12.24 88.04 C-9.78 95.32, -7.31 102.6, -2.62 116.45 M-12.24 88.04 C-10.06 94.47, -7.89 100.9, -2.62 116.45" stroke="#1e1e1e" stroke-width="4" fill="none"/></g><g transform="translate(122.4104442470741 119.53019667860838) rotate(0 -1.308441530601101 58.22543598195269)"><path d="M8.27 88.5 C5.48 95.66, 2.69 102.82, -2.62 116.45 M8.27 88.5 C5.81 94.82, 3.35 101.15, -2.62 116.45" stroke="#1e1e1e" stroke-width="4" fill="none"/></g></g><mask/><g stroke-linecap="round"><g transform="translate(240.1697327851341 339.34752530040856) rotate(0 24.860289255634534 -4.440892098500626e-16)"><path d="M0 0 C17.42 0, 34.83 0, 49.72 0 M0 0 C13.41 0, 26.82 0, 49.72 0" stroke="#1e1e1e" stroke-width="4" fill="none"/></g><g transform="translate(240.1697327851341 339.34752530040856) rotate(0 24.860289255634534 -4.440892098500626e-16)"><path d="M26.36 8.5 C34.54 5.52, 42.72 2.55, 49.72 0 M26.36 8.5 C32.66 6.21, 38.96 3.92, 49.72 0" stroke="#1e1e1e" stroke-width="4" fill="none"/></g><g transform="translate(240.1697327851341 339.34752530040856) rotate(0 24.860289255634534 -4.440892098500626e-16)"><path d="M26.36 -8.5 C34.54 -5.52, 42.72 -2.55, 49.72 0 M26.36 -8.5 C32.66 -6.21, 38.96 -3.92, 49.72 0" stroke="#1e1e1e" stroke-width="4" fill="none"/></g></g><mask/><g stroke-linecap="round"><g transform="translate(511.9619086968996 340.7768962539894) rotate(0 72.4000514956615 -0.09666079827634988)"><path d="M0 0 C37.76 -0.05, 75.52 -0.1, 144.8 -0.19" stroke="#1e1e1e" stroke-width="4.5" fill="none" stroke-dasharray="8 12"/></g><g transform="translate(511.9619086968996 340.7768962539894) rotate(0 72.4000514956615 -0.09666079827634988)"><path d="M116.62 10.1 C123.97 7.42, 131.32 4.73, 144.8 -0.19" stroke="#1e1e1e" stroke-width="4.5" fill="none"/></g><g transform="translate(511.9619086968996 340.7768962539894) rotate(0 72.4000514956615 -0.09666079827634988)"><path d="M116.6 -10.42 C123.95 -7.75, 131.31 -5.08, 144.8 -0.19" stroke="#1e1e1e" stroke-width="4.5" fill="none"/></g></g><mask/><g stroke-linecap="round"><g transform="translate(887.734439713625 344.0497976260932) rotate(0 23.01313117637278 -0.007595756772135864)"><path d="M0 0 C16.63 -0.01, 33.26 -0.01, 46.03 -0.02 M0 0 C11.53 0, 23.07 -0.01, 46.03 -0.02" stroke="#1e1e1e" stroke-width="4" fill="none"/></g><g transform="translate(887.734439713625 344.0497976260932) rotate(0 23.01313117637278 -0.007595756772135864)"><path d="M24.4 7.86 C32.22 5.02, 40.03 2.17, 46.03 -0.02 M24.4 7.86 C29.82 5.89, 35.24 3.91, 46.03 -0.02" stroke="#1e1e1e" stroke-width="4" fill="none"/></g><g transform="translate(887.734439713625 344.0497976260932) rotate(0 23.01313117637278 -0.007595756772135864)"><path d="M24.4 -7.88 C32.21 -5.04, 40.03 -2.2, 46.03 -0.02 M24.4 -7.88 C29.82 -5.91, 35.24 -3.94, 46.03 -0.02" stroke="#1e1e1e" stroke-width="4" fill="none"/></g></g><mask/><g stroke-linecap="round" transform="translate(700.097864191223 197.09017254593425) rotate(0 71.74888772884208 26.909984901498007)"><path d="M0 0 C49.45 0, 98.91 0, 143.5 0 M0 0 C46.24 0, 92.48 0, 143.5 0 M143.5 0 C143.5 13.49, 143.5 26.98, 143.5 53.82 M143.5 0 C143.5 16.01, 143.5 32.02, 143.5 53.82 M143.5 53.82 C86.94 53.82, 30.38 53.82, 0 53.82 M143.5 53.82 C108.66 53.82, 73.83 53.82, 0 53.82 M0 53.82 C0 32.76, 0 11.7, 0 0 M0 53.82 C0 35.37, 0 16.91, 0 0" stroke="#1e1e1e" stroke-width="4" fill="none"/></g><g transform="translate(721.2539784825651 207.90015744743226) rotate(0 50.5927734375 16.099999999999994)"><text x="50.5927734375" y="0" font-family="Helvetica, Segoe UI Emoji" font-size="28px" fill="#1e1e1e" text-anchor="middle" style="white-space: pre;" direction="ltr" dominant-baseline="text-before-edge">LM7805</text></g><g stroke-linecap="round"><g transform="translate(828.5576733610052 48.11398491881556) rotate(0 -40.54694142466633 72.87496416306539)"><path d="M0 0 C-22.79 0.31, -45.57 0.62, -81.09 1.1 M0 0 C-27.62 0.37, -55.23 0.75, -81.09 1.1 M-81.09 1.1 C-81.09 46.65, -81.09 92.21, -81.09 145.75 M-81.09 1.1 C-81.09 53.64, -81.09 106.18, -81.09 145.75" stroke="#1e1e1e" stroke-width="4" fill="none"/></g><g transform="translate(828.5576733610052 48.11398491881556) rotate(0 -40.54694142466633 72.87496416306539)"><path d="M-91.35 117.56 C-88.47 125.48, -85.59 133.4, -81.09 145.75 M-91.35 117.56 C-87.86 127.16, -84.37 136.76, -81.09 145.75" stroke="#1e1e1e" stroke-width="4" fill="none"/></g><g transform="translate(828.5576733610052 48.11398491881556) rotate(0 -40.54694142466633 72.87496416306539)"><path d="M-70.83 117.56 C-73.72 125.48, -76.6 133.4, -81.09 145.75 M-70.83 117.56 C-74.33 127.16, -77.82 136.76, -81.09 145.75" stroke="#1e1e1e" stroke-width="4" fill="none"/></g></g><mask/><g stroke-linecap="round"><g transform="translate(1037.8768847406373 96.60000610351562) rotate(0 2.495700607328331 98.49376565545728)"><path d="M0 0 C1.32 52.14, 2.64 104.28, 4.99 196.99 M0 0 C1.92 75.9, 3.85 151.8, 4.99 196.99" stroke="#1e1e1e" stroke-width="4" fill="none"/></g><g transform="translate(1037.8768847406373 96.60000610351562) rotate(0 2.495700607328331 98.49376565545728)"><path d="M-5.98 169.07 C-3.08 176.46, -0.17 183.85, 4.99 196.99 M-5.98 169.07 C-1.75 179.82, 2.47 190.58, 4.99 196.99" stroke="#1e1e1e" stroke-width="4" fill="none"/></g><g transform="translate(1037.8768847406373 96.60000610351562) rotate(0 2.495700607328331 98.49376565545728)"><path d="M14.53 168.55 C12.01 176.07, 9.48 183.6, 4.99 196.99 M14.53 168.55 C10.86 179.5, 7.18 190.46, 4.99 196.99" stroke="#1e1e1e" stroke-width="4" fill="none"/></g></g><mask/><g stroke-linecap="round"><g transform="translate(770.4769216880453 254.1364434538193) rotate(0 0.547923732027698 21.91728371231744)"><path d="M0 0 C0.4 15.97, 0.8 31.95, 1.1 43.83 M0 0 C0.22 8.86, 0.44 17.71, 1.1 43.83" stroke="#1e1e1e" stroke-width="4" fill="none"/></g><g transform="translate(770.4769216880453 254.1364434538193) rotate(0 0.547923732027698 21.91728371231744)"><path d="M-6.92 23.43 C-4 30.86, -1.08 38.3, 1.1 43.83 M-6.92 23.43 C-5.3 27.55, -3.68 31.67, 1.1 43.83" stroke="#1e1e1e" stroke-width="4" fill="none"/></g><g transform="translate(770.4769216880453 254.1364434538193) rotate(0 0.547923732027698 21.91728371231744)"><path d="M8.08 23.05 C5.53 30.63, 2.99 38.2, 1.1 43.83 M8.08 23.05 C6.67 27.25, 5.26 31.45, 1.1 43.83" stroke="#1e1e1e" stroke-width="4" fill="none"/></g></g><mask/><g stroke-linecap="round"><g transform="translate(1168.2755709019257 329.75108898287493) rotate(0 92.60057384922254 -41.09490696059521)"><path d="M0 0 C60.5 0, 121 0, 185.2 0 M0 0 C54.14 0, 108.27 0, 185.2 0 M185.2 0 C183.97 -30.65, 182.75 -61.31, 181.91 -82.19 M185.2 0 C184.01 -29.87, 182.81 -59.74, 181.91 -82.19" stroke="#1e1e1e" stroke-width="4" fill="none"/></g><g transform="translate(1168.2755709019257 329.75108898287493) rotate(0 92.60057384922254 -41.09490696059521)"><path d="M193.29 -54.43 C189.58 -63.5, 185.86 -72.57, 181.91 -82.19 M193.29 -54.43 C189.97 -62.55, 186.64 -70.66, 181.91 -82.19" stroke="#1e1e1e" stroke-width="4" fill="none"/></g><g transform="translate(1168.2755709019257 329.75108898287493) rotate(0 92.60057384922254 -41.09490696059521)"><path d="M172.79 -53.61 C175.77 -62.95, 178.75 -72.28, 181.91 -82.19 M172.79 -53.61 C175.46 -61.97, 178.12 -70.32, 181.91 -82.19" stroke="#1e1e1e" stroke-width="4" fill="none"/></g></g><mask/><g stroke-linecap="round"><g transform="translate(1167.1798070456725 358.2435410873272) rotate(0 94.24430324140451 38.35524649655548)"><path d="M0 0 C64.05 0, 128.11 0, 186.43 0 M0 0 C47.63 0, 95.25 0, 186.43 0 M186.43 0 C186.93 18.56, 187.43 37.12, 188.49 76.71 M186.43 0 C186.96 19.77, 187.49 39.54, 188.49 76.71" stroke="#1e1e1e" stroke-width="4" fill="none"/></g><g transform="translate(1167.1798070456725 358.2435410873272) rotate(0 94.24430324140451 38.35524649655548)"><path d="M177.47 48.81 C181.26 58.39, 185.04 67.98, 188.49 76.71 M177.47 48.81 C180.29 55.93, 183.1 63.06, 188.49 76.71" stroke="#1e1e1e" stroke-width="4" fill="none"/></g><g transform="translate(1167.1798070456725 358.2435410873272) rotate(0 94.24430324140451 38.35524649655548)"><path d="M197.99 48.25 C194.72 58.03, 191.46 67.81, 188.49 76.71 M197.99 48.25 C195.56 55.52, 193.13 62.79, 188.49 76.71" stroke="#1e1e1e" stroke-width="4" fill="none"/></g></g><mask/></svg>